<svg xmlns="http://www.w3.org/2000/svg" width="1400" height="820" viewBox="0 0 1400 820">
  <defs><marker id="a" markerWidth="10" markerHeight="10" refX="9" refY="3" orient="auto"><path d="M0,0 L0,6 L9,3 z" fill="#64748b"/></marker></defs><rect width="1400" height="820" fill="#f8fafc"/>
  <text x="700" y="62" text-anchor="middle" font-family="Arial,'PingFang SC'" font-size="34" font-weight="700" fill="#0f172a">预留单状态机：所有任务围绕同一套状态协作</text>
  <g font-family="Arial,'PingFang SC'" font-size="21" text-anchor="middle">
    <g fill="#e0f2fe" stroke="#0284c7" stroke-width="3"><rect x="75" y="160" width="170" height="72" rx="18"/><rect x="300" y="160" width="170" height="72" rx="18"/><rect x="525" y="160" width="190" height="72" rx="18"/></g>
    <text x="160" y="204">CREATED</text><text x="385" y="204">QUEUED</text><text x="620" y="204">PROCESSING</text>
    <g fill="#dcfce7" stroke="#16a34a" stroke-width="3"><rect x="850" y="105" width="190" height="72" rx="18"/><rect x="850" y="220" width="190" height="72" rx="18"/></g><text x="945" y="149">RESERVED</text><text x="945" y="264">PART_RESERVED</text>
    <rect x="850" y="350" width="190" height="72" rx="18" fill="#ffedd5" stroke="#f97316" stroke-width="3"/><text x="945" y="394">OUT_OF_STOCK</text>
    <g fill="#fef2f2" stroke="#ef4444" stroke-width="3"><rect x="525" y="570" width="190" height="72" rx="18"/><rect x="850" y="570" width="190" height="72" rx="18"/></g><text x="620" y="614">CANCELING</text><text x="945" y="614">CANCELED</text>
    <g fill="#f1f5f9" stroke="#64748b" stroke-width="3"><rect x="1110" y="160" width="190" height="72" rx="18"/><rect x="1110" y="350" width="190" height="72" rx="18"/></g><text x="1205" y="204">SHIPPED</text><text x="1205" y="394">RELEASED</text>
    <g stroke="#64748b" stroke-width="4" fill="none" marker-end="url(#a)"><line x1="245" y1="196" x2="295" y2="196"/><line x1="470" y1="196" x2="520" y2="196"/><line x1="715" y1="188" x2="845" y2="145"/><line x1="715" y1="205" x2="845" y2="250"/><line x1="685" y1="232" x2="850" y2="350"/><line x1="1040" y1="141" x2="1105" y2="184"/><line x1="945" y1="292" x2="945" y2="345"/><line x1="850" y1="386" x2="715" y2="570"/><line x1="715" y1="606" x2="845" y2="606"/><line x1="1040" y1="606" x2="1165" y2="427"/></g>
    <text x="700" y="740" font-size="23" fill="#475569">只有合法状态转换才能修改库存；重试、取消和发货不再各自猜测当前状态</text>
  </g>
</svg>
