<svg xmlns="http://www.w3.org/2000/svg" width="1400" height="760" viewBox="0 0 1400 760">
  <defs><marker id="a" markerWidth="10" markerHeight="10" refX="9" refY="3" orient="auto"><path d="M0,0 L0,6 L9,3 z" fill="#64748b"/></marker></defs>
  <rect width="1400" height="760" fill="#f8fafc"/>
  <text x="700" y="64" text-anchor="middle" font-family="Arial,'PingFang SC'" font-size="34" font-weight="700" fill="#0f172a">库存预留主链路：快速决策与最终扣减分离</text>
  <g font-family="Arial,'PingFang SC'">
    <rect x="70" y="278" width="190" height="100" rx="18" fill="#dbeafe" stroke="#2563eb" stroke-width="3"/><text x="165" y="338" text-anchor="middle" font-size="26" fill="#172554">订单事件</text>
    <rect x="330" y="130" width="390" height="390" rx="24" fill="#eff6ff" stroke="#3b82f6" stroke-width="3"/>
    <text x="525" y="185" text-anchor="middle" font-size="28" font-weight="700" fill="#1e3a8a">业务编排服务</text>
    <text x="525" y="240" text-anchor="middle" font-size="22" fill="#334155">幂等校验</text><text x="525" y="292" text-anchor="middle" font-size="22" fill="#334155">基于快照做缺货初分</text><text x="525" y="344" text-anchor="middle" font-size="22" fill="#334155">选择候选仓库</text><text x="525" y="396" text-anchor="middle" font-size="22" fill="#334155">保存预留单</text><text x="525" y="448" text-anchor="middle" font-size="22" fill="#334155">进入优先级队列</text>
    <rect x="800" y="130" width="500" height="390" rx="24" fill="#ecfdf5" stroke="#10b981" stroke-width="3"/>
    <text x="1050" y="185" text-anchor="middle" font-size="28" font-weight="700" fill="#064e3b">库存事务服务</text>
    <text x="1050" y="240" text-anchor="middle" font-size="22" fill="#334155">批量抓取与流量控制</text><text x="1050" y="292" text-anchor="middle" font-size="22" fill="#334155">基于真实库存重新预检</text><text x="1050" y="344" text-anchor="middle" font-size="22" fill="#334155">按仓库与商品聚类</text><text x="1050" y="396" text-anchor="middle" font-size="22" fill="#334155">统一原子扣减</text><text x="1050" y="448" text-anchor="middle" font-size="22" fill="#334155">保存流水并发布结果</text>
    <line x1="260" y1="328" x2="325" y2="328" stroke="#64748b" stroke-width="4" marker-end="url(#a)"/><line x1="720" y1="328" x2="795" y2="328" stroke="#64748b" stroke-width="4" marker-end="url(#a)"/>
    <rect x="390" y="575" width="270" height="88" rx="16" fill="#fff7ed" stroke="#f97316" stroke-width="2"/><text x="525" y="610" text-anchor="middle" font-size="21" fill="#7c2d12">库存快照：快，但可能延迟</text><text x="525" y="642" text-anchor="middle" font-size="18" fill="#475569">用于候选决策</text>
    <rect x="915" y="575" width="270" height="88" rx="16" fill="#f0fdf4" stroke="#16a34a" stroke-width="2"/><text x="1050" y="610" text-anchor="middle" font-size="21" fill="#14532d">真实库存：最终事实</text><text x="1050" y="642" text-anchor="middle" font-size="18" fill="#475569">用于原子确认</text>
  </g>
</svg>
